<svg width="216" height="48" viewBox="0 0 216 48" fill="none" xmlns="http://www.w3.org/2000/svg">
<path d="M13.288 33.96C13.288 36.616 12.808 38.808 11.848 40.536C10.92 42.264 9.672 43.608 8.104 44.568C6.568 45.56 4.728 46.408 2.584 47.112L0.472 41.544C1.88 41 2.936 40.376 3.64 39.672C4.344 38.968 4.808 38.152 5.032 37.224C5.288 36.296 5.416 35.112 5.416 33.672V5.73599H13.288V33.96Z" fill="#141414"/>
<path d="M30.2504 12.696C34.1544 12.696 37.2104 13.896 39.4184 16.296C41.6264 18.664 42.7304 21.992 42.7304 26.28C42.7304 29 42.2184 31.384 41.1944 33.432C40.2024 35.448 38.7624 37.016 36.8744 38.136C35.0184 39.256 32.8104 39.816 30.2504 39.816C26.3784 39.816 23.3224 38.632 21.0824 36.264C18.8744 33.864 17.7704 30.52 17.7704 26.232C17.7704 23.512 18.2664 21.144 19.2584 19.128C20.2824 17.08 21.7224 15.496 23.5784 14.376C25.4664 13.256 27.6904 12.696 30.2504 12.696ZM30.2504 18.264C28.7144 18.264 27.5624 18.92 26.7944 20.232C26.0264 21.512 25.6424 23.512 25.6424 26.232C25.6424 29.016 26.0104 31.048 26.7464 32.328C27.5144 33.608 28.6824 34.248 30.2504 34.248C31.7864 34.248 32.9384 33.608 33.7064 32.328C34.4744 31.016 34.8584 29 34.8584 26.28C34.8584 23.496 34.4744 21.464 33.7064 20.184C32.9704 18.904 31.8184 18.264 30.2504 18.264Z" fill="#141414"/>
<path d="M67.0289 31.608C67.0289 32.568 67.1569 33.272 67.4129 33.72C67.7009 34.168 68.1489 34.504 68.7569 34.728L67.1729 39.672C65.6049 39.544 64.3249 39.208 63.3329 38.664C62.3409 38.088 61.5729 37.192 61.0289 35.976C59.3649 38.536 56.8049 39.816 53.3489 39.816C50.8209 39.816 48.8049 39.08 47.3009 37.608C45.7969 36.136 45.0449 34.216 45.0449 31.848C45.0449 29.064 46.0689 26.936 48.1169 25.464C50.1649 23.992 53.1249 23.256 56.9969 23.256H59.5889V22.152C59.5889 20.648 59.2689 19.624 58.6289 19.08C57.9889 18.504 56.8689 18.216 55.2689 18.216C54.4369 18.216 53.4289 18.344 52.2449 18.6C51.0609 18.824 49.8449 19.144 48.5969 19.56L46.8689 14.568C48.4689 13.96 50.1009 13.496 51.7649 13.176C53.4609 12.856 55.0289 12.696 56.4689 12.696C60.1169 12.696 62.7889 13.448 64.4849 14.952C66.1809 16.456 67.0289 18.712 67.0289 21.72V31.608ZM55.5569 34.392C57.2849 34.392 58.6289 33.576 59.5889 31.944V27.432H57.7169C55.9889 27.432 54.6929 27.736 53.8289 28.344C52.9969 28.952 52.5809 29.896 52.5809 31.176C52.5809 32.2 52.8369 33 53.3489 33.576C53.8929 34.12 54.6289 34.392 55.5569 34.392ZM59.5889 8.51999C58.8849 8.51999 58.2769 8.40799 57.7649 8.18399C57.2529 7.95999 56.6929 7.63999 56.0849 7.22399C55.2849 6.64799 54.6289 6.35999 54.1169 6.35999C53.5729 6.35999 53.1089 6.53599 52.7249 6.88799C52.3729 7.20799 51.9889 7.73599 51.5729 8.47199L47.7809 6.64799C48.4209 4.98399 49.2689 3.62399 50.3249 2.56799C51.4129 1.51199 52.6289 0.983991 53.9729 0.983991C54.7089 0.983991 55.3329 1.11199 55.8449 1.36799C56.3889 1.59199 56.9809 1.91199 57.6209 2.32799C58.0689 2.61599 58.4209 2.82399 58.6769 2.95199C58.9649 3.07999 59.2529 3.14399 59.5409 3.14399C60.0529 3.14399 60.4849 2.98399 60.8369 2.66399C61.2209 2.31199 61.6209 1.76799 62.0369 1.03199L65.8289 2.90399C65.1569 4.59999 64.2769 5.95999 63.1889 6.98399C62.1329 8.00799 60.9329 8.51999 59.5889 8.51999Z" fill="#141414"/>
<path d="M84.1097 12.696C88.0137 12.696 91.0697 13.896 93.2777 16.296C95.4857 18.664 96.5898 21.992 96.5898 26.28C96.5898 29 96.0777 31.384 95.0537 33.432C94.0617 35.448 92.6217 37.016 90.7337 38.136C88.8777 39.256 86.6697 39.816 84.1097 39.816C80.2377 39.816 77.1817 38.632 74.9417 36.264C72.7337 33.864 71.6298 30.52 71.6298 26.232C71.6298 23.512 72.1258 21.144 73.1178 19.128C74.1418 17.08 75.5818 15.496 77.4378 14.376C79.3258 13.256 81.5497 12.696 84.1097 12.696ZM84.1097 18.264C82.5737 18.264 81.4217 18.92 80.6537 20.232C79.8857 21.512 79.5017 23.512 79.5017 26.232C79.5017 29.016 79.8698 31.048 80.6058 32.328C81.3738 33.608 82.5417 34.248 84.1097 34.248C85.6457 34.248 86.7977 33.608 87.5658 32.328C88.3337 31.016 88.7178 29 88.7178 26.28C88.7178 23.496 88.3337 21.464 87.5658 20.184C86.8298 18.904 85.6777 18.264 84.1097 18.264Z" fill="#141414"/>
<path d="M137.548 5.73599L128.284 39H118.492L108.892 5.73599H117.196L123.532 32.856L129.484 5.73599H137.548Z" fill="#141414"/>
<path d="M147.451 13.512V39H139.867V13.512H147.451ZM143.611 0.071991C144.923 0.071991 145.995 0.487991 146.827 1.31999C147.691 2.11999 148.123 3.14399 148.123 4.39199C148.123 5.63999 147.691 6.67999 146.827 7.51199C145.995 8.31199 144.923 8.71199 143.611 8.71199C142.299 8.71199 141.227 8.31199 140.395 7.51199C139.563 6.67999 139.147 5.63999 139.147 4.39199C139.147 3.14399 139.563 2.11999 140.395 1.31999C141.227 0.487991 142.299 0.071991 143.611 0.071991Z" fill="#141414"/>
<path d="M169.398 37.8C168.47 38.44 167.381 38.936 166.133 39.288C164.917 39.64 163.702 39.816 162.486 39.816C156.918 39.784 154.133 36.712 154.133 30.6V18.792H150.533V13.512H154.133V7.99199L161.717 7.12799V13.512H167.574L166.758 18.792H161.717V30.504C161.717 31.688 161.91 32.536 162.294 33.048C162.678 33.56 163.286 33.816 164.118 33.816C164.982 33.816 165.894 33.544 166.854 33L169.398 37.8Z" fill="#141414"/>
<path d="M182.125 12.696C186.029 12.696 189.085 13.896 191.293 16.296C193.501 18.664 194.605 21.992 194.605 26.28C194.605 29 194.093 31.384 193.069 33.432C192.077 35.448 190.637 37.016 188.749 38.136C186.893 39.256 184.685 39.816 182.125 39.816C178.253 39.816 175.197 38.632 172.957 36.264C170.749 33.864 169.645 30.52 169.645 26.232C169.645 23.512 170.141 21.144 171.133 19.128C172.157 17.08 173.597 15.496 175.453 14.376C177.341 13.256 179.565 12.696 182.125 12.696ZM182.125 18.264C180.589 18.264 179.437 18.92 178.669 20.232C177.901 21.512 177.517 23.512 177.517 26.232C177.517 29.016 177.885 31.048 178.621 32.328C179.389 33.608 180.557 34.248 182.125 34.248C183.661 34.248 184.813 33.608 185.581 32.328C186.349 31.016 186.733 29 186.733 26.28C186.733 23.496 186.349 21.464 185.581 20.184C184.845 18.904 183.693 18.264 182.125 18.264Z" fill="#141414"/>
<path d="M212.941 12.792C213.869 12.792 214.717 12.904 215.485 13.128L214.285 20.472C213.325 20.248 212.557 20.136 211.981 20.136C210.477 20.136 209.325 20.664 208.525 21.72C207.757 22.744 207.149 24.296 206.701 26.376V39H199.117V13.512H205.741L206.365 18.456C206.941 16.696 207.805 15.32 208.957 14.328C210.141 13.304 211.469 12.792 212.941 12.792Z" fill="#141414"/>
</svg>
